Coordinates
version=1
nRows=8
nColumns=42
inDegrees=yes

Units are S.I. units (second, meters, Newtons, ...)
If the header above contains a line with 'inDegrees', this indicates whether rotational values are in degrees (yes) or radians (no).

endheader
time	pelvis_tilt	pelvis_list	pelvis_rotation	pelvis_tx	pelvis_ty	pelvis_tz	hip_flexion_r	hip_adduction_r	hip_rotation_r	knee_angle_r	knee_adduction_r	knee_angle_r_beta	ankle_angle_r	subtalar_angle_r	mtp_angle_r	hip_flexion_l	hip_adduction_l	hip_rotation_l	knee_angle_l	knee_adduction_l	knee_angle_l_beta	ankle_angle_l	subtalar_angle_l	mtp_angle_l	lumbar_extension	lumbar_bending	lumbar_rotation	arm_flex_r	arm_add_r	arm_rot_r	elbow_flex_r	pro_sup_r	wrist_flex_r	wrist_dev_r	arm_flex_l	arm_add_l	arm_rot_l	elbow_flex_l	pro_sup_l	wrist_flex_l	wrist_dev_l
      0.72000000	      4.67221347	      0.42988186	      0.53290105	     -0.77677318	      1.00735103	      0.19067093	     23.57686796	     -6.10977523	     -7.46896201	     29.76927009	      6.88771474	      0.51957178	     -1.54618737	    -14.92399131	     -7.78263115	    -12.84861634	     -4.13300543	     -3.05692619	      8.72877938	     12.61348952	      0.15234594	     12.70561596	     -1.15541793	     -7.78263115	    -18.02088628	     -1.00952593	     -2.49821056	     -7.05747000	     -7.61409186	    -19.26783685	      9.67305657	     90.00000001	      0.00000000	      0.00000000	     14.75830924	    -19.49857278	     -8.30372408	     43.41007893	     90.00000001	      0.00000000	      0.00000000
      0.73000000	      4.70553568	      0.51360736	      0.69431096	     -0.76260288	      1.00501102	      0.19101440	     23.39231533	     -6.03808771	     -8.01029380	     25.91202161	      6.79650351	      0.45225009	     -1.36315170	    -13.79383379	     -7.77636867	    -13.69881174	     -4.13051330	     -3.11575053	      8.91751689	     12.64129346	      0.15564003	     13.30211457	     -0.84279763	     -7.77636867	    -18.06089221	     -0.98143330	     -2.66947545	     -7.77181940	     -7.41690261	    -19.42398243	      9.57071563	     90.00000001	      0.00000000	      0.00000000	     15.29992361	    -20.03015848	     -7.75139343	     44.71740547	     90.00000001	      0.00000000	      0.00000000
      0.74000000	      4.78707623	      0.57941113	      0.83074411	     -0.74831825	      1.00264699	      0.19135805	     23.14441177	     -5.98583630	     -8.61913708	     22.29923978	      6.79167838	      0.38919515	     -1.04174466	    -12.42713686	     -7.76853093	    -14.58348942	     -4.14271620	     -3.21452602	      9.17644337	     12.63966623	      0.16015915	     13.84578895	     -0.41759882	     -7.76853093	    -18.15804540	     -0.93853514	     -2.82717736	     -8.38851403	     -7.27009215	    -19.65865950	      9.42933529	     90.00000001	      0.00000000	      0.00000000	     15.65533683	    -20.61835518	     -6.98877971	     46.26949828	     90.00000001	      0.00000000	      0.00000000
      0.75000000	      4.86827762	      0.70167577	      1.02476051	     -0.73389040	      1.00029034	      0.19168826	     22.88968257	     -6.08267172	     -9.29741561	     19.00297518	      6.94991362	      0.33166448	     -0.63835510	    -10.69602808	     -7.75920386	    -15.40046932	     -4.14249674	     -3.29741290	      9.57032792	     12.66249337	      0.16703373	     14.34946832	      0.05907985	     -7.75920386	    -18.23925722	     -0.94162667	     -3.05869974	     -8.93169672	     -7.08452603	    -19.96036105	      9.26388696	     90.00000001	      0.00000000	      0.00000000	     15.92980929	    -21.21618815	     -6.25313027	     47.80112991	     90.00000001	      0.00000000	      0.00000000
      0.76000000	      4.80340832	      0.95382963	      1.28661749	     -0.71957303	      0.99786266	      0.19175067	     22.87923276	     -6.43065396	     -9.96539950	     16.24468363	      7.28353354	      0.28352322	     -0.50619385	     -9.42688543	     -7.75544336	    -15.92558009	     -3.93286695	     -3.05858550	     10.16445859	     12.51304777	      0.17740327	     14.66890596	      0.20839711	     -7.75544336	    -18.19059250	     -1.02676211	     -3.35783094	     -9.49055241	     -6.93204944	    -20.04363904	      9.28552310	     90.00000001	      0.00000000	      0.00000000	     16.45756767	    -21.50354006	     -6.11221963	     48.53628714	     90.00000001	      0.00000000	      0.00000000
      0.77000000	      4.99389498	      0.95409588	      1.45656210	     -0.70472947	      0.99563059	      0.19220119	     22.59028833	     -6.43429239	    -10.74470300	     13.92449481	      7.53002006	      0.24302828	      0.47149970	     -6.45785181	     -7.73824807	    -16.81785096	     -4.14493438	     -3.31978382	     10.72418977	     12.59009251	      0.18717242	     15.24828983	      1.02167356	     -7.73824807	    -18.35432439	     -0.89675738	     -3.64355131	     -9.72433978	     -6.83312983	    -20.65903551	      8.92631963	     90.00000001	      0.00000000	      0.00000000	     16.20205853	    -22.32569340	     -5.16995412	     50.58423399	     90.00000001	      0.00000000	      0.00000000
      0.78000000	      4.97726163	      1.08659864	      1.72282996	     -0.69011360	      0.99339533	      0.19238049	     22.57309292	     -6.66423429	    -11.07182571	     12.12083226	      7.97947351	      0.21154843	      0.70664476	     -5.49428024	     -7.73495866	    -17.33328640	     -4.12858287	     -2.93417830	     11.44207137	     12.48618608	      0.19970182	     15.41547597	      1.08358756	     -7.73495866	    -18.31814910	     -0.84888844	     -3.92408499	    -10.13645101	     -6.74294452	    -20.72772822	      8.94788560	     90.00000001	      0.00000000	      0.00000000	     16.63919218	    -22.46767352	     -5.17788888	     51.06061683	     90.00000001	      0.00000000	      0.00000000
      0.79000000	      5.05214261	      1.04929142	      1.93011534	     -0.67517018	      0.99129124	      0.19275983	     22.51178684	     -6.63158099	    -11.51168803	     10.89752781	      8.20642762	      0.19019774	      1.50481525	     -3.27234979	     -7.71883955	    -17.95029732	     -4.36564567	     -2.89297490	     12.22458279	     12.45171936	      0.21335922	     15.71879665	      1.59194295	     -7.71883955	    -18.36218560	     -0.62654829	     -4.21056842	    -10.27236563	     -6.70552908	    -21.19437424	      8.68776060	     90.00000001	      0.00000000	      0.00000000	     16.40629209	    -22.92612023	     -4.90446574	     52.51546525	     90.00000001	      0.00000000	      0.00000000
